<svg xmlns="http://www.w3.org/2000/svg" viewBox="0 0 64 64" width="64" height="64" role="img" aria-label="Ko-fi">
  <defs>
    <linearGradient id="lxs-kf-ring" x1="0" y1="0" x2="0" y2="1"><stop offset="0" stop-color="#fff4c2"/><stop offset=".45" stop-color="#e8b64e"/><stop offset="1" stop-color="#8c5b1b"/></linearGradient>
    <radialGradient id="lxs-kf-bg" cx=".34" cy=".28" r=".85"><stop offset="0" stop-color="#8fe3ff"/><stop offset=".6" stop-color="#34b3ec"/><stop offset="1" stop-color="#1678b8"/></radialGradient>
  </defs>
  <circle cx="32" cy="32" r="31" fill="#2a1646"/>
  <circle cx="32" cy="32" r="29.5" fill="url(#lxs-kf-ring)"/>
  <circle cx="32" cy="32" r="26" fill="url(#lxs-kf-bg)"/>
  <ellipse cx="24" cy="15.5" rx="11" ry="5" fill="#fff" opacity=".28"/>
  <!-- steam, and the heart rising out of it -->
  <path d="M22.5 25.5c-1.6-1.8 1.6-3.2 0-5.2M37.5 25.5c-1.6-1.8 1.6-3.2 0-5.2" fill="none" stroke="#fff" stroke-width="1.8" stroke-linecap="round" opacity=".8"/>
  <path d="M30 24.2c-5.6-3.6-5.4-9.6-1.2-9.9 1.6-.1 2.6 1 3.2 2 .6-1 1.6-2.1 3.2-2 4.2.3 4.4 6.3-1.2 9.9l-2 1.3z" transform="translate(-2 0)" fill="#ff5e6c" stroke="#fff" stroke-width="1.4" stroke-linejoin="round"/>
  <!-- the mug -->
  <path d="M42.6 32.2h2.2a5.6 5.6 0 0 1 0 11.2h-2.6" fill="none" stroke="#fff" stroke-width="3.6" stroke-linecap="round"/>
  <path d="M17 29.5h26.5v11c0 5.6-4.4 9.2-9.8 9.2h-6.9c-5.4 0-9.8-3.6-9.8-9.2z" fill="#fff"/>
  <path d="M17 29.5h26.5v2.6H17z" fill="#dff4ff"/>
  <!-- a happy face -->
  <path d="M23.6 38.3q2.1-2.6 4.2 0M32.8 38.3q2.1-2.6 4.2 0" fill="none" stroke="#35284f" stroke-width="1.9" stroke-linecap="round"/>
  <ellipse cx="21.8" cy="42" rx="2.3" ry="1.4" fill="#ff9cc0"/>
  <ellipse cx="38.8" cy="42" rx="2.3" ry="1.4" fill="#ff9cc0"/>
  <path d="M28.6 41.8q1.7 1.9 3.4 0" fill="none" stroke="#35284f" stroke-width="1.6" stroke-linecap="round"/>
</svg>
